{
	"asset":{
		"generator":"Khronos glTF Blender I/O v4.0.44",
		"version":"2.0"
	},
	"extensionsUsed":[
		"KHR_materials_clearcoat",
		"KHR_materials_transmission",
		"KHR_materials_ior"
	],
	"scene":0,
	"scenes":[
		{
			"name":"Scene",
			"nodes":[
				0
			]
		}
	],
	"nodes":[
		{
			"mesh":0,
			"name":"body",
			"scale":[
				0.8469155430793762,
				1.2596768140792847,
				1
			],
			"translation":[
				0,
				0.40428993105888367,
				0
			]
		}
	],
	"materials":[
		{
			"doubleSided":true,
			"name":"\u30de\u30c6\u30ea\u30a2\u30eb.005",
			"pbrMetallicRoughness":{
				"baseColorFactor":[
					0.014446234330534935,
					0,
					0.08649418503046036,
					1
				],
				"metallicFactor":0,
				"roughnessFactor":0.800000011920929
			}
		},
		{
			"doubleSided":true,
			"name":"\u30de\u30c6\u30ea\u30a2\u30eb.004",
			"pbrMetallicRoughness":{
				"baseColorFactor":[
					0.800000011920929,
					0.800000011920929,
					0.800000011920929,
					1
				],
				"metallicFactor":0,
				"roughnessFactor":0.5
			}
		},
		{
			"doubleSided":true,
			"name":"\u30de\u30c6\u30ea\u30a2\u30eb.006",
			"pbrMetallicRoughness":{
				"baseColorFactor":[
					1,
					0.6827875375747681,
					0,
					1
				],
				"metallicFactor":0,
				"roughnessFactor":0.5
			}
		},
		{
			"doubleSided":true,
			"name":"\u30de\u30c6\u30ea\u30a2\u30eb.003",
			"pbrMetallicRoughness":{
				"baseColorFactor":[
					0.7999992966651917,
					0.4421641528606415,
					0.04911430552601814,
					1
				],
				"metallicFactor":0,
				"roughnessFactor":0.5
			}
		},
		{
			"doubleSided":true,
			"extensions":{
				"KHR_materials_clearcoat":{
					"clearcoatFactor":1,
					"clearcoatRoughnessFactor":0
				},
				"KHR_materials_transmission":{
					"transmissionFactor":1
				},
				"KHR_materials_ior":{
					"ior":1.4500000476837158
				}
			},
			"name":"\u30de\u30c6\u30ea\u30a2\u30eb.001",
			"pbrMetallicRoughness":{
				"baseColorFactor":[
					0,
					0,
					0,
					1
				],
				"metallicFactor":0,
				"roughnessFactor":0
			}
		},
		{
			"doubleSided":true,
			"name":"\u30de\u30c6\u30ea\u30a2\u30eb.008",
			"pbrMetallicRoughness":{
				"metallicFactor":0,
				"roughnessFactor":0
			}
		}
	],
	"meshes":[
		{
			"name":"\u7acb\u65b9\u4f53",
			"primitives":[
				{
					"attributes":{
						"POSITION":0,
						"NORMAL":1,
						"TEXCOORD_0":2
					},
					"indices":3,
					"material":0
				},
				{
					"attributes":{
						"POSITION":4,
						"NORMAL":5,
						"TEXCOORD_0":6
					},
					"indices":7,
					"material":1
				},
				{
					"attributes":{
						"POSITION":8,
						"NORMAL":9,
						"TEXCOORD_0":10
					},
					"indices":11,
					"material":2
				},
				{
					"attributes":{
						"POSITION":12,
						"NORMAL":13,
						"TEXCOORD_0":14
					},
					"indices":15,
					"material":3
				},
				{
					"attributes":{
						"POSITION":16,
						"NORMAL":17,
						"TEXCOORD_0":18
					},
					"indices":19,
					"material":4
				},
				{
					"attributes":{
						"POSITION":20,
						"NORMAL":21,
						"TEXCOORD_0":22
					},
					"indices":23,
					"material":5
				}
			]
		}
	],
	"accessors":[
		{
			"bufferView":0,
			"componentType":5126,
			"count":3990,
			"max":[
				0.2838701605796814,
				0.17804917693138123,
				0.2298630326986313
			],
			"min":[
				-0.24863913655281067,
				-0.3274298906326294,
				-0.2298630177974701
			],
			"type":"VEC3"
		},
		{
			"bufferView":1,
			"componentType":5126,
			"count":3990,
			"type":"VEC3"
		},
		{
			"bufferView":2,
			"componentType":5126,
			"count":3990,
			"type":"VEC2"
		},
		{
			"bufferView":3,
			"componentType":5123,
			"count":21792,
			"type":"SCALAR"
		},
		{
			"bufferView":4,
			"componentType":5126,
			"count":2753,
			"max":[
				0.2605437636375427,
				0.0426148995757103,
				-0.034981224685907364
			],
			"min":[
				0.2302529662847519,
				0.019991161301732063,
				-0.05449586734175682
			],
			"type":"VEC3"
		},
		{
			"bufferView":5,
			"componentType":5126,
			"count":2753,
			"type":"VEC3"
		},
		{
			"bufferView":6,
			"componentType":5126,
			"count":2753,
			"type":"VEC2"
		},
		{
			"bufferView":7,
			"componentType":5123,
			"count":16128,
			"type":"SCALAR"
		},
		{
			"bufferView":8,
			"componentType":5126,
			"count":6530,
			"max":[
				0.14969761669635773,
				0.1891402155160904,
				0.10329069197177887
			],
			"min":[
				0.08277054131031036,
				0.1230335533618927,
				-0.10329069942235947
			],
			"type":"VEC3"
		},
		{
			"bufferView":9,
			"componentType":5126,
			"count":6530,
			"type":"VEC3"
		},
		{
			"bufferView":10,
			"componentType":5126,
			"count":6530,
			"type":"VEC2"
		},
		{
			"bufferView":11,
			"componentType":5123,
			"count":38400,
			"type":"SCALAR"
		},
		{
			"bufferView":12,
			"componentType":5126,
			"count":2624,
			"max":[
				0.2575622797012329,
				0.05769546329975128,
				0.07908494770526886
			],
			"min":[
				0.22260215878486633,
				0.00915876030921936,
				-0.07908497750759125
			],
			"type":"VEC3"
		},
		{
			"bufferView":13,
			"componentType":5126,
			"count":2624,
			"type":"VEC3"
		},
		{
			"bufferView":14,
			"componentType":5126,
			"count":2624,
			"type":"VEC2"
		},
		{
			"bufferView":15,
			"componentType":5123,
			"count":15360,
			"type":"SCALAR"
		},
		{
			"bufferView":16,
			"componentType":5126,
			"count":656,
			"max":[
				0.2264215350151062,
				0.12121769785881042,
				0.10591675341129303
			],
			"min":[
				0.1939515471458435,
				0.07069294154644012,
				-0.10586640238761902
			],
			"type":"VEC3"
		},
		{
			"bufferView":17,
			"componentType":5126,
			"count":656,
			"type":"VEC3"
		},
		{
			"bufferView":18,
			"componentType":5126,
			"count":656,
			"type":"VEC2"
		},
		{
			"bufferView":19,
			"componentType":5123,
			"count":3072,
			"type":"SCALAR"
		},
		{
			"bufferView":20,
			"componentType":5126,
			"count":1118,
			"max":[
				0.22609765827655792,
				0.12731793522834778,
				0.11627571284770966
			],
			"min":[
				0.165008082985878,
				0.05576915293931961,
				-0.11627572029829025
			],
			"type":"VEC3"
		},
		{
			"bufferView":21,
			"componentType":5126,
			"count":1118,
			"type":"VEC3"
		},
		{
			"bufferView":22,
			"componentType":5126,
			"count":1118,
			"type":"VEC2"
		},
		{
			"bufferView":23,
			"componentType":5123,
			"count":5760,
			"type":"SCALAR"
		}
	],
	"bufferViews":[
		{
			"buffer":0,
			"byteLength":47880,
			"byteOffset":0,
			"target":34962
		},
		{
			"buffer":0,
			"byteLength":47880,
			"byteOffset":47880,
			"target":34962
		},
		{
			"buffer":0,
			"byteLength":31920,
			"byteOffset":95760,
			"target":34962
		},
		{
			"buffer":0,
			"byteLength":43584,
			"byteOffset":127680,
			"target":34963
		},
		{
			"buffer":0,
			"byteLength":33036,
			"byteOffset":171264,
			"target":34962
		},
		{
			"buffer":0,
			"byteLength":33036,
			"byteOffset":204300,
			"target":34962
		},
		{
			"buffer":0,
			"byteLength":22024,
			"byteOffset":237336,
			"target":34962
		},
		{
			"buffer":0,
			"byteLength":32256,
			"byteOffset":259360,
			"target":34963
		},
		{
			"buffer":0,
			"byteLength":78360,
			"byteOffset":291616,
			"target":34962
		},
		{
			"buffer":0,
			"byteLength":78360,
			"byteOffset":369976,
			"target":34962
		},
		{
			"buffer":0,
			"byteLength":52240,
			"byteOffset":448336,
			"target":34962
		},
		{
			"buffer":0,
			"byteLength":76800,
			"byteOffset":500576,
			"target":34963
		},
		{
			"buffer":0,
			"byteLength":31488,
			"byteOffset":577376,
			"target":34962
		},
		{
			"buffer":0,
			"byteLength":31488,
			"byteOffset":608864,
			"target":34962
		},
		{
			"buffer":0,
			"byteLength":20992,
			"byteOffset":640352,
			"target":34962
		},
		{
			"buffer":0,
			"byteLength":30720,
			"byteOffset":661344,
			"target":34963
		},
		{
			"buffer":0,
			"byteLength":7872,
			"byteOffset":692064,
			"target":34962
		},
		{
			"buffer":0,
			"byteLength":7872,
			"byteOffset":699936,
			"target":34962
		},
		{
			"buffer":0,
			"byteLength":5248,
			"byteOffset":707808,
			"target":34962
		},
		{
			"buffer":0,
			"byteLength":6144,
			"byteOffset":713056,
			"target":34963
		},
		{
			"buffer":0,
			"byteLength":13416,
			"byteOffset":719200,
			"target":34962
		},
		{
			"buffer":0,
			"byteLength":13416,
			"byteOffset":732616,
			"target":34962
		},
		{
			"buffer":0,
			"byteLength":8944,
			"byteOffset":746032,
			"target":34962
		},
		{
			"buffer":0,
			"byteLength":11520,
			"byteOffset":754976,
			"target":34963
		}
	],
	"buffers":[
		{
			"byteLength":766496,
			"uri":"monadoni.bin"
		}
	]
}
