{
	"asset":{
		"generator":"Khronos glTF Blender I/O v4.0.44",
		"version":"2.0"
	},
	"scene":0,
	"scenes":[
		{
			"name":"Scene",
			"nodes":[
				0
			]
		}
	],
	"nodes":[
		{
			"mesh":0,
			"name":"glass",
			"rotation":[
				0,
				0,
				-0.7071068286895752,
				0.7071068286895752
			],
			"scale":[
				0.03931984305381775,
				0.0019823210313916206,
				0.03931984305381775
			]
		}
	],
	"materials":[
		{
			"doubleSided":true,
			"name":"\u30de\u30c6\u30ea\u30a2\u30eb.009",
			"pbrMetallicRoughness":{
				"baseColorFactor":[
					0.014446234330534935,
					0,
					0.08649418503046036,
					1
				],
				"metallicFactor":0,
				"roughnessFactor":0.20000000298023224
			}
		}
	],
	"meshes":[
		{
			"name":"\u5186\u67f1.001",
			"primitives":[
				{
					"attributes":{
						"POSITION":0,
						"NORMAL":1,
						"TEXCOORD_0":2
					},
					"indices":3,
					"material":0
				}
			]
		}
	],
	"accessors":[
		{
			"bufferView":0,
			"componentType":5126,
			"count":7284,
			"max":[
				0.9261188507080078,
				2.2779388427734375,
				2.1248488426208496
			],
			"min":[
				-0.8471298217773438,
				-2.0666961669921875,
				-2.1248459815979004
			],
			"type":"VEC3"
		},
		{
			"bufferView":1,
			"componentType":5126,
			"count":7284,
			"type":"VEC3"
		},
		{
			"bufferView":2,
			"componentType":5126,
			"count":7284,
			"type":"VEC2"
		},
		{
			"bufferView":3,
			"componentType":5123,
			"count":29160,
			"type":"SCALAR"
		}
	],
	"bufferViews":[
		{
			"buffer":0,
			"byteLength":87408,
			"byteOffset":0,
			"target":34962
		},
		{
			"buffer":0,
			"byteLength":87408,
			"byteOffset":87408,
			"target":34962
		},
		{
			"buffer":0,
			"byteLength":58272,
			"byteOffset":174816,
			"target":34962
		},
		{
			"buffer":0,
			"byteLength":58320,
			"byteOffset":233088,
			"target":34963
		}
	],
	"buffers":[
		{
			"byteLength":291408,
			"uri":"monad-glass.bin"
		}
	]
}
