{
	"asset":{
		"generator":"Khronos glTF Blender I/O v4.0.44",
		"version":"2.0"
	},
	"scene":0,
	"scenes":[
		{
			"name":"Scene",
			"nodes":[
				0
			]
		}
	],
	"nodes":[
		{
			"mesh":0,
			"name":"\u5186",
			"rotation":[
				0,
				0.7071068286895752,
				0,
				0.7071068286895752
			]
		}
	],
	"materials":[
		{
			"doubleSided":true,
			"name":"\u30de\u30c6\u30ea\u30a2\u30eb.007",
			"pbrMetallicRoughness":{
				"baseColorTexture":{
					"index":0
				},
				"metallicFactor":0,
				"roughnessFactor":0.5
			}
		},
		{
			"doubleSided":true,
			"name":"\u30de\u30c6\u30ea\u30a2\u30eb",
			"pbrMetallicRoughness":{
				"baseColorTexture":{
					"index":1
				},
				"metallicFactor":0,
				"roughnessFactor":0.5
			}
		},
		{
			"doubleSided":true,
			"name":"\u30de\u30c6\u30ea\u30a2\u30eb.002",
			"pbrMetallicRoughness":{
				"baseColorFactor":[
					0.800000011920929,
					0.800000011920929,
					0.800000011920929,
					1
				],
				"metallicFactor":0,
				"roughnessFactor":0.5
			}
		}
	],
	"meshes":[
		{
			"name":"\u5186",
			"primitives":[
				{
					"attributes":{
						"POSITION":0,
						"NORMAL":1,
						"TEXCOORD_0":2
					},
					"indices":3,
					"material":0
				},
				{
					"attributes":{
						"POSITION":4,
						"NORMAL":5,
						"TEXCOORD_0":6
					},
					"indices":7,
					"material":1
				},
				{
					"attributes":{
						"POSITION":8,
						"NORMAL":9,
						"TEXCOORD_0":10
					},
					"indices":11,
					"material":2
				}
			]
		}
	],
	"textures":[
		{
			"sampler":0,
			"source":0
		},
		{
			"sampler":0,
			"source":1
		}
	],
	"images":[
		{
			"mimeType":"image/png",
			"name":"monad-hat-style",
			"uri":"monad-hat-style.png"
		},
		{
			"mimeType":"image/png",
			"name":"badge",
			"uri":"badge.png"
		}
	],
	"accessors":[
		{
			"bufferView":0,
			"componentType":5126,
			"count":11426,
			"max":[
				0.16223961114883423,
				0.19157594442367554,
				0.16223961114883423
			],
			"min":[
				-0.16223961114883423,
				-0.005245955195277929,
				-0.16223961114883423
			],
			"type":"VEC3"
		},
		{
			"bufferView":1,
			"componentType":5126,
			"count":11426,
			"type":"VEC3"
		},
		{
			"bufferView":2,
			"componentType":5126,
			"count":11426,
			"type":"VEC2"
		},
		{
			"bufferView":3,
			"componentType":5123,
			"count":66912,
			"type":"SCALAR"
		},
		{
			"bufferView":4,
			"componentType":5126,
			"count":256,
			"max":[
				-0.07477196305990219,
				0.07181064784526825,
				0.15388831496238708
			],
			"min":[
				-0.14351849257946014,
				-0.005939409136772156,
				0.09761878103017807
			],
			"type":"VEC3"
		},
		{
			"bufferView":5,
			"componentType":5126,
			"count":256,
			"type":"VEC3"
		},
		{
			"bufferView":6,
			"componentType":5126,
			"count":256,
			"type":"VEC2"
		},
		{
			"bufferView":7,
			"componentType":5123,
			"count":948,
			"type":"SCALAR"
		},
		{
			"bufferView":8,
			"componentType":5126,
			"count":64,
			"max":[
				-0.0835777074098587,
				0.07033560425043106,
				0.15388831496238708
			],
			"min":[
				-0.1430472880601883,
				-0.004464365541934967,
				0.10851866006851196
			],
			"type":"VEC3"
		},
		{
			"bufferView":9,
			"componentType":5126,
			"count":64,
			"type":"VEC3"
		},
		{
			"bufferView":10,
			"componentType":5126,
			"count":64,
			"type":"VEC2"
		},
		{
			"bufferView":11,
			"componentType":5123,
			"count":192,
			"type":"SCALAR"
		}
	],
	"bufferViews":[
		{
			"buffer":0,
			"byteLength":137112,
			"byteOffset":0,
			"target":34962
		},
		{
			"buffer":0,
			"byteLength":137112,
			"byteOffset":137112,
			"target":34962
		},
		{
			"buffer":0,
			"byteLength":91408,
			"byteOffset":274224,
			"target":34962
		},
		{
			"buffer":0,
			"byteLength":133824,
			"byteOffset":365632,
			"target":34963
		},
		{
			"buffer":0,
			"byteLength":3072,
			"byteOffset":499456,
			"target":34962
		},
		{
			"buffer":0,
			"byteLength":3072,
			"byteOffset":502528,
			"target":34962
		},
		{
			"buffer":0,
			"byteLength":2048,
			"byteOffset":505600,
			"target":34962
		},
		{
			"buffer":0,
			"byteLength":1896,
			"byteOffset":507648,
			"target":34963
		},
		{
			"buffer":0,
			"byteLength":768,
			"byteOffset":509544,
			"target":34962
		},
		{
			"buffer":0,
			"byteLength":768,
			"byteOffset":510312,
			"target":34962
		},
		{
			"buffer":0,
			"byteLength":512,
			"byteOffset":511080,
			"target":34962
		},
		{
			"buffer":0,
			"byteLength":384,
			"byteOffset":511592,
			"target":34963
		}
	],
	"samplers":[
		{
			"magFilter":9729,
			"minFilter":9987
		}
	],
	"buffers":[
		{
			"byteLength":511976,
			"uri":"monad-hat.bin"
		}
	]
}
