{
	"asset":{
		"generator":"Khronos glTF Blender I/O v4.0.44",
		"version":"2.0"
	},
	"scene":0,
	"scenes":[
		{
			"name":"Scene",
			"nodes":[
				0
			]
		}
	],
	"nodes":[
		{
			"mesh":0,
			"name":"\u5186",
			"rotation":[
				0,
				0.7071068286895752,
				0,
				0.7071068286895752
			]
		}
	],
	"materials":[
		{
			"doubleSided":true,
			"name":"\u30de\u30c6\u30ea\u30a2\u30eb.007",
			"pbrMetallicRoughness":{
				"baseColorTexture":{
					"index":0
				},
				"metallicFactor":0,
				"roughnessFactor":0.5
			}
		}
	],
	"meshes":[
		{
			"name":"\u5186",
			"primitives":[
				{
					"attributes":{
						"POSITION":0,
						"NORMAL":1,
						"TEXCOORD_0":2
					},
					"indices":3,
					"material":0
				}
			]
		}
	],
	"textures":[
		{
			"sampler":0,
			"source":0
		}
	],
	"images":[
		{
			"mimeType":"image/png",
			"name":"monad-hat-style",
			"uri":"monad-hat-style.png"
		}
	],
	"accessors":[
		{
			"bufferView":0,
			"componentType":5126,
			"count":11426,
			"max":[
				0.16223961114883423,
				0.19157594442367554,
				0.16223961114883423
			],
			"min":[
				-0.16223961114883423,
				-0.005245955195277929,
				-0.16223961114883423
			],
			"type":"VEC3"
		},
		{
			"bufferView":1,
			"componentType":5126,
			"count":11426,
			"type":"VEC3"
		},
		{
			"bufferView":2,
			"componentType":5126,
			"count":11426,
			"type":"VEC2"
		},
		{
			"bufferView":3,
			"componentType":5123,
			"count":66912,
			"type":"SCALAR"
		}
	],
	"bufferViews":[
		{
			"buffer":0,
			"byteLength":137112,
			"byteOffset":0,
			"target":34962
		},
		{
			"buffer":0,
			"byteLength":137112,
			"byteOffset":137112,
			"target":34962
		},
		{
			"buffer":0,
			"byteLength":91408,
			"byteOffset":274224,
			"target":34962
		},
		{
			"buffer":0,
			"byteLength":133824,
			"byteOffset":365632,
			"target":34963
		}
	],
	"samplers":[
		{
			"magFilter":9729,
			"minFilter":9987
		}
	],
	"buffers":[
		{
			"byteLength":499456,
			"uri":"monad-hat.bin"
		}
	]
}
