{
	"asset":{
		"generator":"Khronos glTF Blender I/O v4.0.44",
		"version":"2.0"
	},
	"extensionsUsed":[
		"KHR_materials_transmission",
		"KHR_materials_ior"
	],
	"scene":0,
	"scenes":[
		{
			"name":"Scene",
			"nodes":[
				0
			]
		}
	],
	"nodes":[
		{
			"mesh":0,
			"name":"\u5186\u67f1.004",
			"rotation":[
				0,
				0,
				-0.7071068286895752,
				0.7071068286895752
			],
			"scale":[
				0.036050695925951004,
				0.0018175059230998158,
				0.036050695925951004
			]
		}
	],
	"materials":[
		{
			"doubleSided":true,
			"name":"\u30de\u30c6\u30ea\u30a2\u30eb.017",
			"pbrMetallicRoughness":{
				"baseColorFactor":[
					0.0015468202764168382,
					0.0015468202764168382,
					0.0015468202764168382,
					1
				],
				"metallicFactor":0,
				"roughnessFactor":0.1149425283074379
			}
		},
		{
			"doubleSided":true,
			"name":"\u30de\u30c6\u30ea\u30a2\u30eb.018",
			"pbrMetallicRoughness":{
				"baseColorFactor":[
					0.800000011920929,
					0.800000011920929,
					0.800000011920929,
					1
				],
				"metallicFactor":0,
				"roughnessFactor":0.10000000149011612
			}
		},
		{
			"doubleSided":true,
			"name":"\u30de\u30c6\u30ea\u30a2\u30eb.019",
			"pbrMetallicRoughness":{
				"baseColorFactor":[
					0.22732941806316376,
					0.08878418058156967,
					0.7999992966651917,
					1
				],
				"metallicFactor":0,
				"roughnessFactor":0.20000000298023224
			}
		},
		{
			"doubleSided":true,
			"extensions":{
				"KHR_materials_transmission":{
					"transmissionFactor":1
				},
				"KHR_materials_ior":{
					"ior":1.4500000476837158
				}
			},
			"name":"\u30de\u30c6\u30ea\u30a2\u30eb.010",
			"pbrMetallicRoughness":{
				"baseColorFactor":[
					0.0025384121108800173,
					0.0012949313968420029,
					0.0019003236666321754,
					1
				],
				"metallicFactor":0,
				"roughnessFactor":0.08045977354049683
			}
		},
		{
			"doubleSided":true,
			"name":"\u30de\u30c6\u30ea\u30a2\u30eb.011",
			"pbrMetallicRoughness":{
				"baseColorFactor":[
					0.014446234330534935,
					0,
					0.08649418503046036,
					1
				],
				"metallicFactor":0,
				"roughnessFactor":0.5
			}
		}
	],
	"meshes":[
		{
			"name":"\u5186\u67f1.006",
			"primitives":[
				{
					"attributes":{
						"POSITION":0,
						"NORMAL":1,
						"TEXCOORD_0":2
					},
					"indices":3,
					"material":0
				},
				{
					"attributes":{
						"POSITION":4,
						"NORMAL":5,
						"TEXCOORD_0":6
					},
					"indices":7,
					"material":1
				},
				{
					"attributes":{
						"POSITION":8,
						"NORMAL":9,
						"TEXCOORD_0":10
					},
					"indices":11,
					"material":2
				},
				{
					"attributes":{
						"POSITION":12,
						"NORMAL":13,
						"TEXCOORD_0":14
					},
					"indices":15,
					"material":3
				},
				{
					"attributes":{
						"POSITION":16,
						"NORMAL":17,
						"TEXCOORD_0":18
					},
					"indices":19,
					"material":4
				}
			]
		}
	],
	"accessors":[
		{
			"bufferView":0,
			"componentType":5126,
			"count":272,
			"max":[
				0.9939823150634766,
				4.139671325683594,
				2.254286050796509
			],
			"min":[
				-1.0060195922851562,
				-0.3781280517578125,
				-2.2572877407073975
			],
			"type":"VEC3"
		},
		{
			"bufferView":1,
			"componentType":5126,
			"count":272,
			"type":"VEC3"
		},
		{
			"bufferView":2,
			"componentType":5126,
			"count":272,
			"type":"VEC2"
		},
		{
			"bufferView":3,
			"componentType":5123,
			"count":1584,
			"type":"SCALAR"
		},
		{
			"bufferView":4,
			"componentType":5126,
			"count":922,
			"max":[
				0.8107166290283203,
				17.44744873046875,
				2.0511062145233154
			],
			"min":[
				-0.85723876953125,
				-4.802725791931152,
				-2.0922658443450928
			],
			"type":"VEC3"
		},
		{
			"bufferView":5,
			"componentType":5126,
			"count":922,
			"type":"VEC3"
		},
		{
			"bufferView":6,
			"componentType":5126,
			"count":922,
			"type":"VEC2"
		},
		{
			"bufferView":7,
			"componentType":5123,
			"count":4800,
			"type":"SCALAR"
		},
		{
			"bufferView":8,
			"componentType":5126,
			"count":132,
			"max":[
				0.1990184783935547,
				17.89746856689453,
				1.8711225986480713
			],
			"min":[
				-0.6829395294189453,
				9.491561889648438,
				-1.6185511350631714
			],
			"type":"VEC3"
		},
		{
			"bufferView":9,
			"componentType":5126,
			"count":132,
			"type":"VEC3"
		},
		{
			"bufferView":10,
			"componentType":5126,
			"count":132,
			"type":"VEC2"
		},
		{
			"bufferView":11,
			"componentType":5123,
			"count":384,
			"type":"SCALAR"
		},
		{
			"bufferView":12,
			"componentType":5126,
			"count":196,
			"max":[
				0.03748512268066406,
				17.89746856689453,
				1.760880708694458
			],
			"min":[
				-0.5700187683105469,
				11.954681396484375,
				-1.464621901512146
			],
			"type":"VEC3"
		},
		{
			"bufferView":13,
			"componentType":5126,
			"count":196,
			"type":"VEC3"
		},
		{
			"bufferView":14,
			"componentType":5126,
			"count":196,
			"type":"VEC2"
		},
		{
			"bufferView":15,
			"componentType":5123,
			"count":576,
			"type":"SCALAR"
		},
		{
			"bufferView":16,
			"componentType":5126,
			"count":2416,
			"max":[
				0.8283634185791016,
				18.22045135498047,
				2.118018388748169
			],
			"min":[
				-0.8734912872314453,
				-5.115207672119141,
				-2.1210200786590576
			],
			"type":"VEC3"
		},
		{
			"bufferView":17,
			"componentType":5126,
			"count":2416,
			"type":"VEC3"
		},
		{
			"bufferView":18,
			"componentType":5126,
			"count":2416,
			"type":"VEC2"
		},
		{
			"bufferView":19,
			"componentType":5123,
			"count":12288,
			"type":"SCALAR"
		}
	],
	"bufferViews":[
		{
			"buffer":0,
			"byteLength":3264,
			"byteOffset":0,
			"target":34962
		},
		{
			"buffer":0,
			"byteLength":3264,
			"byteOffset":3264,
			"target":34962
		},
		{
			"buffer":0,
			"byteLength":2176,
			"byteOffset":6528,
			"target":34962
		},
		{
			"buffer":0,
			"byteLength":3168,
			"byteOffset":8704,
			"target":34963
		},
		{
			"buffer":0,
			"byteLength":11064,
			"byteOffset":11872,
			"target":34962
		},
		{
			"buffer":0,
			"byteLength":11064,
			"byteOffset":22936,
			"target":34962
		},
		{
			"buffer":0,
			"byteLength":7376,
			"byteOffset":34000,
			"target":34962
		},
		{
			"buffer":0,
			"byteLength":9600,
			"byteOffset":41376,
			"target":34963
		},
		{
			"buffer":0,
			"byteLength":1584,
			"byteOffset":50976,
			"target":34962
		},
		{
			"buffer":0,
			"byteLength":1584,
			"byteOffset":52560,
			"target":34962
		},
		{
			"buffer":0,
			"byteLength":1056,
			"byteOffset":54144,
			"target":34962
		},
		{
			"buffer":0,
			"byteLength":768,
			"byteOffset":55200,
			"target":34963
		},
		{
			"buffer":0,
			"byteLength":2352,
			"byteOffset":55968,
			"target":34962
		},
		{
			"buffer":0,
			"byteLength":2352,
			"byteOffset":58320,
			"target":34962
		},
		{
			"buffer":0,
			"byteLength":1568,
			"byteOffset":60672,
			"target":34962
		},
		{
			"buffer":0,
			"byteLength":1152,
			"byteOffset":62240,
			"target":34963
		},
		{
			"buffer":0,
			"byteLength":28992,
			"byteOffset":63392,
			"target":34962
		},
		{
			"buffer":0,
			"byteLength":28992,
			"byteOffset":92384,
			"target":34962
		},
		{
			"buffer":0,
			"byteLength":19328,
			"byteOffset":121376,
			"target":34962
		},
		{
			"buffer":0,
			"byteLength":24576,
			"byteOffset":140704,
			"target":34963
		}
	],
	"buffers":[
		{
			"byteLength":165280,
			"uri":"monad-glass.bin"
		}
	]
}
