{
	"asset":{
		"generator":"Khronos glTF Blender I/O v4.0.44",
		"version":"2.0"
	},
	"scene":0,
	"scenes":[
		{
			"name":"Scene",
			"nodes":[
				0
			]
		}
	],
	"nodes":[
		{
			"mesh":0,
			"name":"cap",
			"scale":[
				0.12334881722927094,
				0.12334881722927094,
				0.12334881722927094
			],
			"translation":[
				0,
				0.0075541092082858086,
				0
			]
		}
	],
	"materials":[
		{
			"doubleSided":true,
			"name":"\u30de\u30c6\u30ea\u30a2\u30eb.016",
			"pbrMetallicRoughness":{
				"baseColorTexture":{
					"index":0
				},
				"metallicFactor":0,
				"roughnessFactor":0.800000011920929
			}
		},
		{
			"doubleSided":true,
			"name":"\u30de\u30c6\u30ea\u30a2\u30eb.015",
			"pbrMetallicRoughness":{
				"baseColorFactor":[
					0.20511287450790405,
					0.02623969130218029,
					0.9999273419380188,
					1
				],
				"metallicFactor":0,
				"roughnessFactor":0.800000011920929
			}
		}
	],
	"meshes":[
		{
			"name":"\u7403",
			"primitives":[
				{
					"attributes":{
						"POSITION":0,
						"NORMAL":1,
						"TEXCOORD_0":2
					},
					"indices":3,
					"material":0
				},
				{
					"attributes":{
						"POSITION":4,
						"NORMAL":5,
						"TEXCOORD_0":6
					},
					"indices":7,
					"material":1
				}
			]
		}
	],
	"textures":[
		{
			"sampler":0,
			"source":0
		}
	],
	"images":[
		{
			"mimeType":"image/png",
			"name":"monad-cap",
			"uri":"monad-cap.png"
		}
	],
	"accessors":[
		{
			"bufferView":0,
			"componentType":5126,
			"count":2116,
			"max":[
				0.9935949444770813,
				0.9981393814086914,
				0.9935945868492126
			],
			"min":[
				-0.993594229221344,
				-0.00047541435924358666,
				-0.9935950040817261
			],
			"type":"VEC3"
		},
		{
			"bufferView":1,
			"componentType":5126,
			"count":2116,
			"type":"VEC3"
		},
		{
			"bufferView":2,
			"componentType":5126,
			"count":2116,
			"type":"VEC2"
		},
		{
			"bufferView":3,
			"componentType":5123,
			"count":12288,
			"type":"SCALAR"
		},
		{
			"bufferView":4,
			"componentType":5126,
			"count":16394,
			"max":[
				1.877086877822876,
				1.0616238117218018,
				0.9727748036384583
			],
			"min":[
				-0.10031421482563019,
				-0.139113187789917,
				-0.9955243468284607
			],
			"type":"VEC3"
		},
		{
			"bufferView":5,
			"componentType":5126,
			"count":16394,
			"type":"VEC3"
		},
		{
			"bufferView":6,
			"componentType":5126,
			"count":16394,
			"type":"VEC2"
		},
		{
			"bufferView":7,
			"componentType":5123,
			"count":26928,
			"type":"SCALAR"
		}
	],
	"bufferViews":[
		{
			"buffer":0,
			"byteLength":25392,
			"byteOffset":0,
			"target":34962
		},
		{
			"buffer":0,
			"byteLength":25392,
			"byteOffset":25392,
			"target":34962
		},
		{
			"buffer":0,
			"byteLength":16928,
			"byteOffset":50784,
			"target":34962
		},
		{
			"buffer":0,
			"byteLength":24576,
			"byteOffset":67712,
			"target":34963
		},
		{
			"buffer":0,
			"byteLength":196728,
			"byteOffset":92288,
			"target":34962
		},
		{
			"buffer":0,
			"byteLength":196728,
			"byteOffset":289016,
			"target":34962
		},
		{
			"buffer":0,
			"byteLength":131152,
			"byteOffset":485744,
			"target":34962
		},
		{
			"buffer":0,
			"byteLength":53856,
			"byteOffset":616896,
			"target":34963
		}
	],
	"samplers":[
		{
			"magFilter":9729,
			"minFilter":9987
		}
	],
	"buffers":[
		{
			"byteLength":670752,
			"uri":"monad-cap.bin"
		}
	]
}
