{
	"asset":{
		"generator":"Khronos glTF Blender I/O v4.0.44",
		"version":"2.0"
	},
	"scene":0,
	"scenes":[
		{
			"name":"Scene",
			"nodes":[
				0
			]
		}
	],
	"nodes":[
		{
			"mesh":0,
			"name":"\u5186.001",
			"rotation":[
				0,
				0,
				-0.7071067690849304,
				0.7071068286895752
			],
			"scale":[
				0.040982894599437714,
				0.040982894599437714,
				0.040982894599437714
			]
		}
	],
	"materials":[
		{
			"doubleSided":true,
			"name":"\u30de\u30c6\u30ea\u30a2\u30eb",
			"pbrMetallicRoughness":{
				"baseColorTexture":{
					"index":0
				},
				"metallicFactor":0.800000011920929,
				"roughnessFactor":0.5
			}
		},
		{
			"doubleSided":true,
			"name":"\u30de\u30c6\u30ea\u30a2\u30eb.014",
			"pbrMetallicRoughness":{
				"baseColorFactor":[
					0.800000011920929,
					0.800000011920929,
					0.800000011920929,
					1
				],
				"roughnessFactor":0.10000000149011612
			}
		}
	],
	"meshes":[
		{
			"name":"\u5186.001",
			"primitives":[
				{
					"attributes":{
						"POSITION":0,
						"NORMAL":1,
						"TEXCOORD_0":2
					},
					"indices":3,
					"material":0
				},
				{
					"attributes":{
						"POSITION":4,
						"NORMAL":5,
						"TEXCOORD_0":6
					},
					"indices":7,
					"material":1
				}
			]
		}
	],
	"textures":[
		{
			"sampler":0,
			"source":0
		}
	],
	"images":[
		{
			"mimeType":"image/png",
			"name":"badge",
			"uri":"badge.png"
		}
	],
	"accessors":[
		{
			"bufferView":0,
			"componentType":5126,
			"count":1280,
			"max":[
				1.0475420951843262,
				0.13288207352161407,
				1.0475401878356934
			],
			"min":[
				-1.0475382804870605,
				-0.13288161158561707,
				-1.0475401878356934
			],
			"type":"VEC3"
		},
		{
			"bufferView":1,
			"componentType":5126,
			"count":1280,
			"type":"VEC3"
		},
		{
			"bufferView":2,
			"componentType":5126,
			"count":1280,
			"type":"VEC2"
		},
		{
			"bufferView":3,
			"componentType":5123,
			"count":2100,
			"type":"SCALAR"
		},
		{
			"bufferView":4,
			"componentType":5126,
			"count":384,
			"max":[
				1.0475420951843262,
				0.13288207352161407,
				1.0475401878356934
			],
			"min":[
				-1.0475382804870605,
				-0.13288161158561707,
				-1.0475401878356934
			],
			"type":"VEC3"
		},
		{
			"bufferView":5,
			"componentType":5126,
			"count":384,
			"type":"VEC3"
		},
		{
			"bufferView":6,
			"componentType":5126,
			"count":384,
			"type":"VEC2"
		},
		{
			"bufferView":7,
			"componentType":5123,
			"count":960,
			"type":"SCALAR"
		}
	],
	"bufferViews":[
		{
			"buffer":0,
			"byteLength":15360,
			"byteOffset":0,
			"target":34962
		},
		{
			"buffer":0,
			"byteLength":15360,
			"byteOffset":15360,
			"target":34962
		},
		{
			"buffer":0,
			"byteLength":10240,
			"byteOffset":30720,
			"target":34962
		},
		{
			"buffer":0,
			"byteLength":4200,
			"byteOffset":40960,
			"target":34963
		},
		{
			"buffer":0,
			"byteLength":4608,
			"byteOffset":45160,
			"target":34962
		},
		{
			"buffer":0,
			"byteLength":4608,
			"byteOffset":49768,
			"target":34962
		},
		{
			"buffer":0,
			"byteLength":3072,
			"byteOffset":54376,
			"target":34962
		},
		{
			"buffer":0,
			"byteLength":1920,
			"byteOffset":57448,
			"target":34963
		}
	],
	"samplers":[
		{
			"magFilter":9729,
			"minFilter":9987
		}
	],
	"buffers":[
		{
			"byteLength":59368,
			"uri":"monad-earring.bin"
		}
	]
}
